<svg width="20" height="20" viewBox="0 0 20 20" fill="none" xmlns="http://www.w3.org/2000/svg">
<g id="Frame 17">
<path id="icon" d="M2 4L8 10M18 4L12 10M8 10L8.58579 10.5858C9.36684 11.3668 10.6332 11.3668 11.4142 10.5858L12 10M8 10L1.87868 16.1213M12 10L18.1213 16.1213M18.1213 16.1213C18.6642 15.5784 19 14.8284 19 14V5C19 3.89543 18.1046 3 17 3H3C1.89543 3 1 3.89543 1 5V14C1 14.8284 1.33579 15.5784 1.87868 16.1213M18.1213 16.1213C17.5784 16.6642 16.8284 17 16 17H4C3.17157 17 2.42157 16.6642 1.87868 16.1213" stroke="#686B6E" stroke-width="1.5" stroke-linecap="round"/>
</g>
</svg>
