<svg width="20" height="20" viewBox="0 0 20 20" fill="none" xmlns="http://www.w3.org/2000/svg">
<g id="Frame 18">
<path id="icon" d="M6 8V6C6 3.79086 7.79086 2 10 2C12.2091 2 14 3.79086 14 6V8M10 13C10.5523 13 11 12.5523 11 12C11 11.4477 10.5523 11 10 11C9.44772 11 9 11.4477 9 12C9 12.5523 9.44772 13 10 13ZM10 13V15M5 18H15C16.1046 18 17 17.1046 17 16V10C17 8.89543 16.1046 8 15 8H5C3.89543 8 3 8.89543 3 10V16C3 17.1046 3.89543 18 5 18Z" stroke="#686B6E" stroke-width="1.5" stroke-linecap="round" stroke-linejoin="round"/>
</g>
</svg>
