<svg width="34" height="34" viewBox="0 0 34 34" fill="none" xmlns="http://www.w3.org/2000/svg">
<path d="M2 5.33333C2 3.49238 3.49238 2 5.33333 2C7.17428 2 8.66667 3.49238 8.66667 5.33333V28.6667C8.66667 30.5076 7.17428 32 5.33333 32C3.49238 32 2 30.5076 2 28.6667V5.33333Z" stroke="currentcolor" stroke-width="3" stroke-linecap="round"/>
<path d="M13.6667 18.6667C13.6667 16.8257 15.1591 15.3333 17 15.3333C18.8409 15.3333 20.3333 16.8257 20.3333 18.6667V28.6667C20.3333 30.5076 18.8409 32 17 32C15.1591 32 13.6667 30.5076 13.6667 28.6667V18.6667Z" stroke="currentcolor" stroke-width="3" stroke-linecap="round"/>
<path d="M25.3333 12C25.3333 10.1591 26.8257 8.66667 28.6667 8.66667C30.5076 8.66667 32 10.1591 32 12V28.6667C32 30.5076 30.5076 32 28.6667 32C26.8257 32 25.3333 30.5076 25.3333 28.6667V12Z" stroke="currentcolor" stroke-width="3" stroke-linecap="round"/>
</svg>
