<!DOCTYPE svg PUBLIC "-//W3C//DTD SVG 1.1//EN" "http://www.w3.org/Graphics/SVG/1.1/DTD/svg11.dtd">

<!-- Uploaded to: SVG Repo, www.svgrepo.com, Transformed by: SVG Repo Mixer Tools -->
<svg width="800px" height="800px" viewBox="-2.4 -2.4 28.80 28.80" fill="currentcolor" xmlns="http://www.w3.org/2000/svg" transform="matrix(1, 0, 0, 1, 0, 0)rotate(0)" stroke="currentcolor" stroke-width="0.624">

<g id="SVGRepo_bgCarrier" stroke-width="0"/>

<g id="SVGRepo_tracerCarrier" stroke-linecap="round" stroke-linejoin="round" stroke="red" stroke-width="1"/>

<g id="SVGRepo_iconCarrier"> <path fill-rule="evenodd" clip-rule="evenodd" d="M10.8532 4.13112C11.2884 3.12751 12.7117 3.12752 13.1469 4.13112L15.1266 8.69665L20.0805 9.16869C21.1695 9.27246 21.6093 10.626 20.7893 11.3501L17.059 14.6438L18.1408 19.501C18.3787 20.5688 17.2272 21.4053 16.2853 20.8492L12 18.3193L7.71482 20.8492C6.77284 21.4053 5.62141 20.5688 5.85923 19.501L6.94111 14.6438L3.21082 11.3501C2.39082 10.626 2.83063 9.27246 3.91959 9.16869L8.87345 8.69665L10.8532 4.13112Z" fill="currentcolor"/> </g>

</svg>
