<svg width="50" height="50" viewBox="0 0 50 50" fill="none" xmlns="http://www.w3.org/2000/svg">
<path opacity="0.5" d="M45.8332 25C45.8332 36.5059 36.5057 45.8334 24.9998 45.8334C13.4939 45.8334 4.1665 36.5059 4.1665 25C4.1665 13.4941 13.4939 4.16669 24.9998 4.16669C36.5057 4.16669 45.8332 13.4941 45.8332 25Z" fill="#686B6E"/>
<path d="M21.6933 17.7044L22.0347 17.0921C23.3541 14.7252 24.0139 13.5417 25.0002 13.5417C25.9864 13.5417 26.6462 14.7251 27.9656 17.0921L28.307 17.7045C28.6818 18.377 28.8693 18.7133 29.1616 18.9352C29.4539 19.1571 29.8181 19.2395 30.5462 19.4042L31.2089 19.5542C33.7712 20.1339 35.0522 20.4238 35.357 21.404C35.6618 22.384 34.7885 23.4052 33.0418 25.4479L32.5897 25.9763C32.0935 26.5567 31.8454 26.8469 31.7337 27.2061C31.622 27.565 31.6595 27.9523 31.7345 28.7267L31.8029 29.4317C32.067 32.1569 32.1989 33.5196 31.401 34.1252C30.6031 34.7311 29.4037 34.1788 27.0047 33.0742L26.3841 32.7884C25.7022 32.4746 25.3614 32.3175 25.0002 32.3175C24.6389 32.3175 24.2981 32.4746 23.6162 32.7884L22.9956 33.0742C20.5967 34.1788 19.3972 34.7311 18.5993 34.1252C17.8013 33.5196 17.9334 32.1569 18.1975 29.4317L18.2658 28.7267C18.3408 27.9523 18.3783 27.565 18.2667 27.2061C18.155 26.8469 17.9069 26.5567 17.4105 25.9763L16.9586 25.4479C15.2119 23.4052 14.3385 22.384 14.6433 21.404C14.9481 20.4238 16.2292 20.1339 18.7914 19.5542L19.4542 19.4042C20.1823 19.2395 20.5464 19.1571 20.8387 18.9352C21.131 18.7133 21.3185 18.377 21.6933 17.7044Z" fill="#FAF000"/>
</svg>
