<svg width="100" height="100" viewBox="0 0 100 100" fill="none" xmlns="http://www.w3.org/2000/svg">
<path fill-rule="evenodd" clip-rule="evenodd" d="M5.84668 49.9992C5.84668 25.6146 25.6143 5.84692 49.9989 5.84692C74.3833 5.84692 94.1513 25.6146 94.1513 49.9992C94.1513 74.3833 74.3833 94.1513 49.9989 94.1513C25.6143 94.1513 5.84668 74.3833 5.84668 49.9992ZM49.9989 12.1802C29.1121 12.1802 12.18 29.1124 12.18 49.9992C12.18 59.813 15.9182 68.754 22.0484 75.4753C27.9382 66.2746 38.2545 60.1666 50.0015 60.1666C61.747 60.1666 72.0619 66.2731 77.9526 75.472C84.0806 68.7513 87.8179 59.8114 87.8179 49.9992C87.8179 29.1124 70.8853 12.1802 49.9989 12.1802ZM73.2119 79.858C68.5593 71.8633 59.9046 66.4999 50.0015 66.4999C40.0971 66.4999 31.4415 71.8646 26.7896 79.8606C33.1967 84.848 41.2509 87.818 49.9989 87.818C58.7484 87.818 66.8039 84.8466 73.2119 79.858ZM34.3332 43.3658C34.3332 34.7133 41.3474 27.6991 49.9999 27.6991C58.6523 27.6991 65.6665 34.7133 65.6665 43.3658C65.6665 52.0182 58.6523 59.0324 49.9999 59.0324C41.3474 59.0324 34.3332 52.0182 34.3332 43.3658ZM49.9999 34.0324C44.8452 34.0324 40.6665 38.2111 40.6665 43.3658C40.6665 48.5204 44.8452 52.6991 49.9999 52.6991C55.1545 52.6991 59.3332 48.5204 59.3332 43.3658C59.3332 38.2111 55.1545 34.0324 49.9999 34.0324Z" fill="#686B6E"/>
</svg>
